<?xml version="1.0" encoding="UTF-8" standalone="no"?>
<!-- Created with Inkscape (http://www.inkscape.org/) -->

<svg
   width="500"
   height="500"
   viewBox="0 0 132.29166 132.29167"
   version="1.1"
   id="svg1"
   inkscape:version="1.3.2 (091e20e, 2023-11-25, custom)"
   sodipodi:docname="CArm.svg"
   xmlns:inkscape="http://www.inkscape.org/namespaces/inkscape"
   xmlns:sodipodi="http://sodipodi.sourceforge.net/DTD/sodipodi-0.dtd"
   xmlns:xlink="http://www.w3.org/1999/xlink"
   xmlns="http://www.w3.org/2000/svg"
   xmlns:svg="http://www.w3.org/2000/svg">
  <sodipodi:namedview
     id="namedview1"
     pagecolor="#ffffff"
     bordercolor="#000000"
     borderopacity="0.25"
     inkscape:showpageshadow="2"
     inkscape:pageopacity="0.0"
     inkscape:pagecheckerboard="0"
     inkscape:deskcolor="#d1d1d1"
     inkscape:document-units="mm"
     inkscape:zoom="1.4142136"
     inkscape:cx="219.55665"
     inkscape:cy="276.12519"
     inkscape:window-width="1920"
     inkscape:window-height="1009"
     inkscape:window-x="-8"
     inkscape:window-y="-8"
     inkscape:window-maximized="1"
     inkscape:current-layer="layer1" />
  <defs
     id="defs1">
    <filter
       inkscape:collect="always"
       style="color-interpolation-filters:sRGB"
       id="filter8"
       x="-0.0057116908"
       y="-0.0038312708"
       width="1.0114234"
       height="1.0076625">
      <feGaussianBlur
         inkscape:collect="always"
         stdDeviation="0.1650873"
         id="feGaussianBlur8" />
    </filter>
    <filter
       inkscape:collect="always"
       style="color-interpolation-filters:sRGB"
       id="filter9"
       x="-0.001987198"
       y="-0.0013329667"
       width="1.0039744"
       height="1.0026659">
      <feGaussianBlur
         inkscape:collect="always"
         stdDeviation="0.041271824"
         id="feGaussianBlur9" />
    </filter>
    <filter
       inkscape:collect="always"
       style="color-interpolation-filters:sRGB"
       id="filter10"
       x="-0.020609662"
       y="-0.013824487"
       width="1.0412193"
       height="1.027649">
      <feGaussianBlur
         inkscape:collect="always"
         stdDeviation="0.66034919"
         id="feGaussianBlur10" />
    </filter>
    <filter
       inkscape:collect="always"
       style="color-interpolation-filters:sRGB"
       id="filter11"
       x="-0.080201548"
       y="-0.053797352"
       width="1.1604031"
       height="1.1075947">
      <feGaussianBlur
         inkscape:collect="always"
         stdDeviation="2.6413968"
         id="feGaussianBlur11" />
    </filter>
    <filter
       inkscape:collect="always"
       style="color-interpolation-filters:sRGB"
       id="filter12"
       x="-0.31856909"
       y="-0.21368881"
       width="1.6371382"
       height="1.4273776">
      <feGaussianBlur
         inkscape:collect="always"
         stdDeviation="10.565587"
         id="feGaussianBlur12" />
    </filter>
    <filter
       inkscape:collect="always"
       style="color-interpolation-filters:sRGB"
       id="filter13"
       x="-1.2720393"
       y="-0.85325466"
       width="3.5440785"
       height="2.7065093">
      <feGaussianBlur
         inkscape:collect="always"
         stdDeviation="42.262348"
         id="feGaussianBlur13" />
    </filter>
    <filter
       inkscape:collect="always"
       style="color-interpolation-filters:sRGB"
       id="filter1"
       x="-0.36633873"
       y="-0.25400356"
       width="1.7326775"
       height="1.5080071">
      <feGaussianBlur
         inkscape:collect="always"
         stdDeviation="13.400819"
         id="feGaussianBlur1" />
    </filter>
  </defs>
  <g
     inkscape:label="Layer 1"
     inkscape:groupmode="layer"
     id="layer1">
    <rect
       style="fill:#000000;fill-opacity:1;stroke:none;stroke-width:0;stroke-linecap:round;stroke-linejoin:round;stroke-dasharray:none"
       id="rect1"
       width="132.29167"
       height="132.29167"
       x="0"
       y="0" />
    <path
       style="opacity:0.1;fill:#ffff00;stroke:none;stroke-width:0.132292;stroke-linecap:round;stroke-linejoin:round;stroke-opacity:1;filter:url(#filter1)"
       d="M 26.194043,108.74645 34.32135,96.995122 37.492344,89.533959 41.036398,75.357748 22.010431,66.145832 v -19.88662 l 6.901576,-4.290168 12.870506,5.968928 -0.186529,-26.300599 -3.170994,-3.91711 0.186528,-8.20728 12.234381,-7.0729074 21.894734,10.6835744 0.06595,54.736831 23.081795,13.78313 6.660742,-0.263793 7.25428,5.341787 -1.45085,10.947365 -4.74826,6.26506 -8.045652,1.18706 -7.584019,-3.75903 -1.253011,-5.27584 -16.157257,-9.034875 1.714648,9.364614 9.298667,9.958151 -0.197845,9.82625 -7.979706,9.10082 -16.552947,3.75903 -18.663279,-3.38311 -10.221939,-8.02589 z"
       id="path1" />
    <g
       id="g5"
       transform="matrix(0.26458333,0,0,0.26458333,12.607397,6.8288966)"
       inkscape:label="g5">
      <path
         id="path1-9"
         d="m 213.42246,337.17878 v -5.87155 m -107.61064,0 v 5.87155 m 143.47234,60.0311 v -5.84621 m -179.359402,0 v 5.84621 m 229.697532,-46.28877 15.53914,8.57955 m 31.25575,-56.488 -15.53923,-8.57949 M 85.489348,161.05881 l -15.53923,-8.6048 m -9.69311,45.98506 1.64502,-0.98703 m -2.35361,-2.75859 -1.1389,0.6833 m -5.33999,16.62752 15.53923,8.6048 m 82.884422,-63.14402 v 0.58206 m 7.16221,0 v -0.58206 m 31.68596,21.48668 v 0.58209 m 7.16222,0 v -0.58209 m -75.79813,-3.54315 v 0.58209 m 7.16221,0 v -0.58209 m 32.41983,76.98763 -0.53149,-0.3037 m -3.46723,6.27644 0.50612,0.3037 m 3.4926,-44.36532 -0.53149,-0.27839 m -3.46723,6.27641 0.50612,0.27841 m 2.75864,-23.68852 v 0.58212 m 7.16221,0 v -0.58212 m -50.61642,9.87021 36.97532,20.44907 m 31.53404,-17.28554 -2.48026,-1.39196 m -2.98638,6.55486 1.99941,1.11356 m -85.035662,17.56392 56.968852,31.53405 m 31.53404,-37.78521 -1.97404,-1.11354 m -3.4926,6.27644 1.99941,1.11357 m -85.035662,-38.08889 5.922122,3.26476 m 0,0 v 25.05515 m 108.39524,6.75729 v -52.71704 m -73.74826,40.72092 0.58213,0.65804 0.91107,0.78455 0.86051,0.55678 0.55676,0.27837 1.03762,0.32903 0.93643,0.10123 0.86042,-0.10123 0.0755,-0.0253 m 32.67294,106.75007 0.20256,0.10125 0.83505,0.17717 0.86061,-0.0507 0.91106,-0.2278 0.93634,-0.4302 0.0504,-0.0507 m 4.70731,-8.42765 -0.0252,-0.75921 -0.27838,-1.06298 -0.37966,-0.78455 -0.53141,-0.65801 -0.6834,-0.50617 m -0.0252,-0.0254 -0.25311,-0.12654 m 10.37634,12.42632 -0.0756,-0.30372 -0.25311,-0.37957 -0.22774,-0.15189 m -1.72103,3.11292 0.37966,0.12654 h 0.40494 l 0.4303,-0.17712 0.40485,-0.32906 0.37966,-0.50618 0.25311,-0.58203 0.0756,-0.63272 -0.0504,-0.17717 m -14.02067,-4.20119 1.41718,0.78455 m 7.94681,4.37836 2.37898,1.31602 m 1.72094,-3.13821 -2.37898,-1.31601 m -7.94672,-4.37836 -1.39201,-0.78455 m -53.02067,-99.05631 v 0.10127 l 0.0504,0.55678 0.25311,0.55677 0.37957,0.50616 0.53149,0.37963 0.48085,0.15185 0.37966,-0.0506 m -1.77157,-2.96109 -0.0504,0.0254 -0.20247,0.37963 -0.0504,0.35428 m 9.69311,-2.30302 0.96161,-0.55678 m 53.62817,103.6372 -0.7846,-0.43027 m -5.56783,10.04739 0.7846,0.43021 m 2.30306,-10.30042 -1.87276,-1.03764 m -4.25183,7.66839 1.87285,1.03764 m 3.03693,-9.89556 -0.7845,-0.4302 m -5.54256,10.04732 0.75932,0.43027 m -55.47566,-112.84936 -0.73395,0.45552 m 5.92212,9.81962 0.73387,-0.45557 m -1.67029,-10.80659 -1.6703,1.01232 m 4.53013,7.51652 1.67038,-1.01232 m -4.50494,-9.11097 -0.73387,0.43027 m 5.92213,9.8449 0.75914,-0.45555 M 311.99803,298.55826 160.93327,214.93988 M 99.079908,180.72315 78.428418,169.28383 m -2.78391,5.01103 20.72749,11.46461 m 61.777362,34.19143 149.34382,82.65668 M 122.41403,46.640318 V 175.40858 m 0,72.38153 v 46.59245 m 5.74503,0 v -43.42892 m 0,-75.54506 V 49.829152 m 62.89089,14.400386 V 178.95173 m 0,60.8916 v 29.8384 m 0,6.55483 v 21.71446 m 5.74493,0 V 279.4254 m 0,-6.55483 v -31.53406 m 0,-62.38478 V 60.787618 m -44.59301,2.35364 v 94.323792 m 0,106.80072 v 12.17326 m 5.74493,0 v -12.62882 m 0,-106.34516 V 66.304788 M 294.15565,326.75176 160.93318,253.02891 m -61.853362,-34.24205 -20.65149,-11.4393 m -2.78391,5.03634 20.72749,11.4646 m 61.777362,34.19144 134.94349,74.68457 M 161.26221,68.152308 V 196.89524 m 0,64.91564 v 54.05838 m 5.74493,0 v -52.94483 m 0,-66.02919 V 71.315838 M 212.38475,50.968029 V 33.404087 M 112.01233,22.875893 v 17.563915 m 64.15634,307.975822 v -29.73717 m 31.02791,16.47567 v -35.15315 m -95.18425,-7.66839 v 35.15316 m 101.41013,9.69303 -0.0504,1.21481 -0.27838,2.12585 -0.53149,2.1259 -0.78451,2.10056 -1.01234,2.05 -1.29073,2.02465 -1.49319,1.94873 -1.74621,1.89811 -1.97413,1.82218 -2.17651,1.74628 -2.37889,1.64507 -2.55617,1.54376 -2.75864,1.44261 -2.91038,1.31602 -3.0623,1.21475 -3.21422,1.08827 -3.3154,0.96172 -3.44187,0.8099 -3.51788,0.68329 -3.59369,0.53146 -3.66971,0.40498 -3.6697,0.25302 -3.72025,0.10127 -3.72043,-0.0506 -3.69498,-0.20246 -3.66961,-0.32901 -3.61916,-0.50618 -3.54305,-0.60737 -3.46733,-0.78456 -3.36595,-0.91109 -3.23941,-1.03764 -3.1383,-1.16418 -2.96102,-1.29073 -2.80928,-1.39192 -2.63199,-1.51853 -2.4549,-1.59439 -2.25242,-1.72099 -2.04996,-1.77156 -1.82221,-1.87281 -1.59447,-1.94874 -1.34128,-1.99937 -1.13889,-2.02464 -0.86042,-2.10056 -0.63277,-2.10063 -0.3543,-2.15119 -0.10128,-1.97401 m 92.62817,15.61514 2.48026,-1.59438 2.2777,-1.69565 2.07523,-1.77162 1.84749,-1.84747 1.64511,-1.92345 1.39191,-1.9993 1.1389,-2.04999 0.91106,-2.07528 0.65795,-2.10057 0.40503,-2.1259 0.12655,-2.15119 -0.10127,-2.15119 -0.3543,-2.12591 -0.63268,-2.12591 -0.86051,-2.07528 -1.11362,-2.04993 -1.36664,-1.97407 -1.59438,-1.94874 -0.1772,-0.17717 m -95.18425,0 -0.75914,0.86052 -1.51856,1.97402 -1.29072,1.99937 -1.01234,2.07527 -0.78451,2.10056 -0.53149,2.10063 -0.27839,2.15119 -0.0252,2.15119 0.25311,2.12591 0.48076,2.12584 0.75932,2.10062 0.98707,2.07528 1.23999,2.02465 1.49319,1.94874 1.69575,1.92338 1.94868,1.82219 2.15124,1.74627 2.32825,1.67037 2.55617,1.54381 2.73328,1.4679 2.88519,1.3413 3.03693,1.21481 3.18886,1.11356 3.3154,0.96172 3.4166,0.86047 3.51787,0.68329 3.59379,0.5568 3.64434,0.43026 3.6697,0.25309 3.72025,0.12655 3.69507,-0.0254 3.72025,-0.17717 3.6697,-0.32901 3.61916,-0.45554 3.56842,-0.60737 3.46723,-0.75927 3.39132,-0.88575 3.26468,-1.01235 3.1383,-1.13885 2.98639,-1.29072 2.83446,-1.36665 2.65736,-1.51853 m -102.245182,1.94874 -3.29014,1.99936 -3.08757,2.10057 -2.91047,2.20182 -2.68263,2.27774 -2.48026,2.35365 -2.25243,2.42962 -2.02459,2.48019 -1.79694,2.55611 -1.5691,2.6068 -1.316,2.65737 -1.06289,2.68266 -0.83524,2.708 -0.55677,2.73327 -0.32902,2.75857 -0.0504,2.75863 0.17711,2.75857 0.45557,2.73329 0.68332,2.73328 0.9617,2.70799 1.18945,2.65737 1.44255,2.63203 1.67047,2.58145 1.92332,2.53083 2.12596,2.45491 2.37889,2.379 2.58144,2.3283 2.80928,2.22717 2.98639,2.15119 3.18876,2.04993 3.39141,1.94873 3.543062,1.84754 3.72034,1.72093 3.87217,1.61973 3.99864,1.49318 4.15055,1.36665 4.27711,1.24009 4.35302,1.11362 4.47957,0.96166 4.55549,0.83518 4.63141,0.68336 4.65668,0.55674 4.73268,0.37963 4.75796,0.27844 4.75796,0.10119 4.78314,-0.0506 4.75805,-0.17713 4.75795,-0.32905 4.68196,-0.48084 4.65677,-0.60737 4.60613,-0.75927 4.50476,-0.91109 4.42893,-1.03765 4.30238,-1.16417 4.22656,-1.29074 4.07455,-1.44255 3.94818,-1.54381 3.79616,-1.67036 3.61907,-1.79685 3.46732,-1.8981 3.29004,-1.99936 3.08757,-2.10056 2.91047,-2.17654 2.68264,-2.27774 2.48026,-2.35365 2.25242,-2.42963 2.02459,-2.50547 1.79694,-2.55618 1.56911,-2.60674 1.316,-2.65737 1.06298,-2.68265 0.83515,-2.70799 0.55676,-2.73329 0.32902,-2.75857 0.0756,-2.75863 -0.20247,-2.73328 -0.45549,-2.75857 -0.68341,-2.73329 -0.96161,-2.68271 -1.18953,-2.68265 -1.44255,-2.63202 -1.6703,-2.58146 -1.92349,-2.50554 -2.12587,-2.4802 -2.37907,-2.37899 -2.58136,-2.32831 -2.80928,-2.22717 -2.98629,-2.15119 -3.18885,-2.04999 -1.6703,-0.987 m 0,43.93511 -5.06171,2.93574 m 0,0 -35.53276,-20.49969 M 172.29682,427.9594 96.194948,384.02428 m 81.163482,40.99931 -5.06161,2.93581 m -102.371832,-30.74953 0.0252,0.68335 0.17711,2.75857 0.45557,2.75862 0.68332,2.70794 0.9617,2.708 1.18945,2.65737 1.44255,2.63202 1.67047,2.58146 1.92332,2.53083 2.12596,2.45491 2.37889,2.40428 2.58144,2.30302 2.80928,2.25245 2.98639,2.12591 3.18876,2.04993 3.39141,1.94873 3.543062,1.84753 3.72034,1.74628 3.87217,1.59439 3.99864,1.49318 4.15055,1.36665 4.27711,1.24009 4.35302,1.11361 4.47957,0.96166 4.55549,0.83519 4.63141,0.68334 4.65668,0.55675 4.73268,0.40498 4.75796,0.25303 4.75796,0.10126 4.78314,-0.0254 4.75805,-0.17718 4.75795,-0.329 4.68196,-0.48089 4.65677,-0.60738 4.60613,-0.78455 4.50476,-0.88581 4.42893,-1.03764 4.30238,-1.16418 4.22656,-1.31601 4.07455,-1.41727 3.94818,-1.56911 3.79616,-1.67036 3.61907,-1.79684 3.46732,-1.89816 3.29004,-1.9993 3.08757,-2.07529 2.91047,-2.20182 2.68264,-2.27773 2.48026,-2.35365 2.25242,-2.42962 2.02459,-2.50549 1.79694,-2.53082 1.56911,-2.6068 1.316,-2.65731 1.06298,-2.68271 0.83515,-2.70794 0.55676,-2.75863 0.32902,-2.73328 0.0756,-2.07528 m -76.98757,-16.12133 50.7177,-29.28163 m -126.819572,-14.62814 10.679992,6.14992 m 42.0623,24.29589 23.35958,13.46396 m -66.48477,-49.45231 -9.617102,5.54254 m 126.819572,14.62814 -11.43941,-6.60546 m 6.3777,15.3874 v 41.02467 m -40.5944,-17.58924 40.59438,-23.43543 m -40.59438,23.43543 v 40.99932 m -5.06161,-43.93506 v 46.87086 m 50.7177,-76.15249 v 46.87086 m -126.819572,-61.499 v 46.84551 m 219.067992,-87.7183 -1.97404,1.29071 -1.97405,1.49319 -1.9234,1.67034 -1.87276,1.84751 -1.82222,1.99935 -1.74629,2.15119 -1.67039,2.25244 -1.54374,2.37898 -1.44255,2.45491 -1.31609,2.53083 -1.18954,2.58139 -1.03752,2.60674 -0.88579,2.63209 -0.73396,2.60674 -0.55676,2.58145 -0.37966,2.50548 -0.22775,2.45491 -0.0504,2.35365 0.12656,2.25245 0.32902,2.12591 0.45557,1.97402 0.65796,1.82218 0.80996,1.64508 0.96161,1.44256 1.11353,1.26538 1.24018,1.03764 1.01234,0.65801 m 31.25566,-56.48795 -1.08826,-0.53146 -1.5691,-0.50617 -1.64503,-0.27839 -1.74629,-0.0254 -1.82222,0.17717 -1.89813,0.43023 -1.92331,0.65801 -1.94886,0.86049 -1.97395,1.08825 m 15.53923,8.60479 -1.97404,1.29072 -1.97413,1.49319 -1.92332,1.67034 -1.87285,1.84753 -1.82221,1.99937 -1.74621,2.1259 -1.67039,2.27774 -1.54374,2.37893 -1.44264,2.45491 -1.316,2.53083 -1.18944,2.58146 -1.03771,2.60673 -0.88579,2.63208 -0.73396,2.60674 -0.55667,2.55611 -0.37966,2.53083 -0.22784,2.45491 -0.0504,2.35365 0.12656,2.25245 0.30366,2.10056 0.48094,1.99937 0.65795,1.79684 0.80987,1.64508 0.96171,1.46784 1.11353,1.26544 1.24017,1.03764 1.39191,0.83518 1.49319,0.60737 1.59439,0.40492 1.72093,0.15189 1.77166,-0.076 1.87277,-0.32901 1.89813,-0.53145 1.94876,-0.75921 1.97405,-0.98707 1.97395,-1.18947 1.97413,-1.39193 1.9234,-1.56916 1.92341,-1.77155 1.84749,-1.92339 1.79694,-2.07528 1.69557,-2.20183 1.61974,-2.32835 1.49328,-2.40428 1.36655,-2.50555 1.26545,-2.55611 1.11353,-2.60674 0.9617,-2.60674 0.80996,-2.6068 0.63268,-2.60674 0.48076,-2.55611 0.30375,-2.48019 0.12656,-2.40428 -0.0252,-2.30308 -0.22783,-2.20182 -0.40485,-2.04994 -0.55685,-1.8981 -0.7086,-1.72101 -0.88578,-1.54381 -1.03762,-1.36665 -1.18945,-1.16417 -1.31608,-0.9364 -1.44265,-0.73394 -1.56901,-0.48086 -1.64511,-0.27839 -1.74621,-0.0506 -1.82222,0.20247 -1.89803,0.43024 -1.9235,0.63271 -1.94868,0.88578 -1.97413,1.08826 m -7.46587,47.52884 -0.45557,0.17718 -0.40494,-0.076 -0.27838,-0.329 -0.10119,-0.50612 0.10119,-0.60743 0.27838,-0.63273 0.40494,-0.55674 0.45557,-0.40492 0.48076,-0.17718 0.40503,0.0759 0.27838,0.30372 0.10119,0.50618 -0.10119,0.63266 -0.27838,0.63272 -0.40503,0.5568 -0.48076,0.40492 m 14.90647,-8.98446 -0.48085,0.17718 -0.40485,-0.0759 -0.25311,-0.30372 -0.10119,-0.50611 0.10119,-0.60744 0.25311,-0.658 0.40485,-0.55675 0.48085,-0.37964 0.48094,-0.17717 0.40484,0.0759 0.25311,0.30372 0.10128,0.50618 -0.10128,0.60738 -0.25311,0.658 -0.40484,0.55681 -0.48094,0.37957 m 7.44068,-19.68978 -0.48085,0.17716 -0.37966,-0.0759 -0.27838,-0.329 -0.10119,-0.48089 0.10119,-0.63266 0.27838,-0.63273 0.37966,-0.5568 0.48085,-0.40492 0.48085,-0.17717 0.40494,0.076 0.27838,0.329 0.0756,0.48083 -0.0756,0.63272 -0.27838,0.63273 -0.40494,0.55674 -0.48085,0.40492 m -7.44068,-10.73068 -0.48085,0.17718 -0.40485,-0.0759 -0.25311,-0.329 -0.10119,-0.50618 0.10119,-0.60743 0.25311,-0.63266 0.40485,-0.55681 0.48085,-0.40492 0.48094,-0.17717 0.40484,0.0759 0.25311,0.30371 0.10128,0.50618 -0.10128,0.63272 -0.25311,0.63266 -0.40484,0.5568 -0.48094,0.40492 m -14.90647,8.95912 -0.45557,0.17717 -0.40494,-0.0759 -0.27838,-0.30372 -0.10119,-0.50617 0.10119,-0.63273 0.27838,-0.63266 0.40494,-0.55681 0.45557,-0.40492 0.48076,-0.17716 0.40503,0.0759 0.27838,0.329 0.10119,0.50618 -0.10119,0.60744 -0.27838,0.63266 -0.40503,0.5568 -0.48076,0.40492 m -7.44059,19.71514 -0.48094,0.17711 -0.37966,-0.0759 -0.2783,-0.32901 -0.10127,-0.50618 0.10127,-0.60737 0.2783,-0.63272 0.37966,-0.55675 0.48094,-0.40498 0.48076,-0.17711 0.40503,0.0759 0.27838,0.30366 0.0756,0.50618 -0.0756,0.63272 -0.27838,0.63272 -0.40503,0.55675 -0.48076,0.40498 m 22.60016,-23.2836 -0.27829,0.10126 -0.25311,-0.0254 -0.15191,-0.20246 -0.0756,-0.30372 0.0756,-0.35428 0.15191,-0.40492 0.25311,-0.32901 0.27829,-0.22779 0.27839,-0.1012 0.2531,0.0254 0.15192,0.20246 0.0504,0.30372 -0.0504,0.35429 -0.15192,0.40498 -0.2531,0.329 -0.27839,0.22775 m -15.38731,9.26283 -0.30375,0.12654 -0.22774,-0.0506 -0.17719,-0.20246 -0.0504,-0.30372 0.0504,-0.35429 0.17719,-0.37963 0.22774,-0.35434 0.30375,-0.22775 0.27829,-0.10126 0.22784,0.0506 0.17719,0.17718 0.0504,0.30366 -0.0504,0.37963 -0.17719,0.37963 -0.22784,0.32901 -0.27829,0.2278 m 7.69361,10.90785 -1.06289,0.50612 -1.01234,0.30372 -0.96179,0.0759 -0.86033,-0.17712 -0.75933,-0.40497 -0.63268,-0.60738 -0.48094,-0.83518 -0.30365,-0.98701 -0.12656,-1.16418 0.0252,-1.26544 0.22774,-1.3413 0.40494,-1.39199 0.55676,-1.39192 0.68332,-1.34136 0.80987,-1.29066 0.93634,-1.13891 0.98707,-1.01235 1.0377,-0.83518 1.06298,-0.63266 1.01225,-0.43027 1.01234,-0.17716 0.91116,0.0506 0.80978,0.27844 0.70868,0.53146 0.55668,0.70863 0.37966,0.9111 0.22783,1.08821 0.0504,1.21481 -0.15183,1.31602 -0.30365,1.36664 -0.45567,1.39198 -0.63268,1.39193 -0.75923,1.31607 -0.88579,1.21476 -0.9617,1.08826 -1.01225,0.93638 -1.03771,0.73398 m -7.6937,7.26342 -0.30366,0.10125 -0.22774,-0.0506 -0.17719,-0.17711 -0.0504,-0.30372 0.0504,-0.37964 0.17719,-0.37963 0.22774,-0.329 0.30366,-0.22775 0.27838,-0.12654 0.22784,0.0507 0.17719,0.20252 0.0504,0.30366 -0.0504,0.35434 -0.17719,0.37963 -0.22784,0.35429 -0.27838,0.22774 m 15.3874,-9.26277 -0.27838,0.1012 -0.25302,-0.0506 -0.15191,-0.17718 -0.0756,-0.30372 0.0756,-0.37963 0.15191,-0.37957 0.25302,-0.32901 0.27838,-0.25309 0.27839,-0.10126 0.2531,0.0507 0.15192,0.17718 0.0504,0.30366 -0.0504,0.37963 -0.15192,0.37963 -0.2531,0.329 -0.27839,0.25309 m -12.88187,-0.88581 -0.93642,0.48089 m 7.06102,-12.73003 0.0252,0.30366 0.0504,1.2148 -0.12655,1.31602 -0.30366,1.36664 -0.48094,1.39199 -0.63259,1.36664 -0.75932,1.31602 -0.86042,1.24009 -0.96179,1.08826 -1.01226,0.9111 -1.06298,0.73392 m 4.32775,-4.65667 -3.51787,-1.92344 m 0,0 -0.32903,0.20246 m 0.32903,-0.63273 v 0.43027 M 67.115208,176.3197 51.575968,167.7149 m 0,0 0.10119,-1.21479 0.27839,-1.26542 0.45557,-1.29071 0.60741,-1.2401 0.75923,-1.18949 0.86051,-1.06297 0.93643,-0.88579 0.9617,-0.7086 m 0,0 15.53923,8.60479 m 0,0 -0.9617,0.68332 -0.93642,0.91108 -0.86043,1.06296 -0.75932,1.16419 -0.6074,1.2654 -0.45558,1.29072 -0.27838,1.26542 -0.10119,1.21479 m 11.31276,31.02789 h -0.0504 l -0.48094,-0.10124 -0.55667,0.12655 -0.6075,0.35431 -0.55676,0.55676 -0.48085,0.68334 -0.37967,0.75926 -0.20246,0.78455 -0.0504,0.73394 0.12655,0.58206 0.30366,0.43026 0.15183,0.12655 m 2.78391,-43.09992 -0.0504,-0.0253 -0.48094,-0.10124 -0.55667,0.15183 -0.6075,0.35434 -0.55676,0.53145 -0.48085,0.68335 -0.37967,0.78455 -0.20246,0.78455 -0.0504,0.70863 0.12655,0.60741 0.30366,0.43023 0.15183,0.10123 m 11.31276,-9.94613 -0.0756,-1.08825 -0.30366,-0.93641 -0.45558,-0.73396 -0.6074,-0.50616 -0.75923,-0.27838 -0.86043,-0.0253 -0.91115,0.22778 -0.98706,0.48085 m 4.96042,43.85916 v -24.77678 m 0,-6.55481 v -9.66774 m -1.84749,46.69367 0.40494,-0.658 0.6074,-1.26542 0.45558,-1.29071 0.30366,-1.26541 0.0756,-1.2148 m -14.88119,14.83059 8.45294,-5.08693 m -13.41336,2.22713 0.10119,1.08823 0.27838,0.91112 0.45557,0.73391 0.60741,0.53149 0.75932,0.2784 0.86042,0.0253 0.93643,-0.22777 0.9617,-0.48088 m -4.96042,-18.09538 v 15.23558 m 4.96042,-18.22193 -4.96042,2.98635 m 4.96042,-2.98635 v -1.77158 m 0,0 -4.96042,3.01169 m 0,-24.01752 v 24.01752 m 14.88119,-38.84813 -9.92077,5.97273 m -4.96042,32.8754 -5.84622,-3.23946 m 0,0 -0.32902,-0.80986 -0.48085,-0.73394 -0.58204,-0.6074 -0.60749,-0.43023 -0.63259,-0.20247 -0.55686,0.0253 -0.4303,0.27837 -0.27829,0.48087 -0.10128,0.658 0.10128,0.75925 0.27829,0.80988 0.4303,0.75925 0.55686,0.63271 0.63259,0.48086 0.60749,0.27839 0.58204,0.0253 0.48085,-0.22778 0.32902,-0.43024 m 5.84622,3.23943 -5.84622,-3.23943 m -9.69302,9.87022 15.53924,8.60479 m -15.53924,-49.60413 v 40.99934 m 30.42043,-47.22516 -15.53924,-8.6048 m 0,0 -9.92076,5.97274 m 9.92076,-5.97274 0.98698,-0.48085 0.91115,-0.22778 0.86051,0.0253 0.73396,0.25307 m -7.16221,45.47888 -1.51856,0.9111 m 10.80664,0.25308 -1.51855,-0.83517 m -11.21149,0.10124 0.48085,0.17713 0.43021,-0.10121 0.27839,-0.3037 0.10118,-0.50616 -0.10118,-0.63271 -0.27839,-0.60742 -0.43021,-0.55676 -0.48085,-0.37962 -0.50621,-0.17716 -0.40485,0.0759 -0.27847,0.32902 -0.10119,0.50616 0.10119,0.60739 0.27847,0.63271 0.40485,0.55678 0.50621,0.37963 m -6.27642,13.64113 -0.0504,-0.0253 -0.60741,-0.50617 -0.45548,-0.73394 -0.27839,-0.93643 -0.10128,-1.08823 m 99.689112,-53.451 -0.7086,0.5315 -0.53149,0.60736 -0.27847,0.63272 -0.0252,0.68334 0.20247,0.65801 0.48085,0.6074 0.65795,0.55678 0.88588,0.45555 1.01225,0.32898 1.11353,0.17719 1.13898,0.0759 1.16417,-0.10121 1.08817,-0.22778 0.98706,-0.35432 0.80988,-0.48085 0.63268,-0.58209 0.40493,-0.63271 0.15183,-0.65803 -0.10119,-0.65799 -0.32902,-0.65802 -0.58204,-0.58211 -0.75932,-0.50617 -0.73387,-0.30367 m -5.74493,0 h -0.0252 l -0.91115,0.43021 m 0.93651,0.0759 -0.4303,0.22778 -0.65804,0.48085 -0.45549,0.55678 -0.22783,0.63271 0.0252,0.60739 0.27838,0.6074 0.5314,0.55678 0.70868,0.45555 0.88579,0.35429 1.01234,0.25308 1.06298,0.0759 1.08826,-0.0506 1.03761,-0.20246 0.91106,-0.32904 0.75924,-0.43021 0.58213,-0.53147 0.32893,-0.60739 0.10128,-0.6074 -0.15183,-0.63271 -0.40494,-0.58209 -0.63268,-0.50616 -0.6074,-0.32901 m -6.17524,0.80984 -0.65804,0.48088 -0.45549,0.58209 -0.20246,0.53147 m 9.26271,0 -0.12646,-0.40492 -0.40494,-0.55681 -0.63268,-0.53145 -0.6074,-0.32901 m -5.74493,0 -0.43031,0.22775 m -0.27838,1.89811 v 0.0759 l 0.17719,0.55676 0.40494,0.50616 0.65796,0.43027 0.80987,0.30369 0.93642,0.17716 h 0.96171 l 0.9617,-0.12654 0.83515,-0.27842 0.70868,-0.4049 0.48085,-0.48088 0.22774,-0.55676 v -0.20249 m -6.45352,-1.82216 -0.25311,0.22777 -0.35439,0.50617 -0.10119,0.58206 0.17719,0.5568 0.40494,0.50617 0.65796,0.43024 0.80987,0.3037 0.93642,0.15184 0.96171,0.0253 0.9617,-0.12655 0.83515,-0.27839 0.70868,-0.40494 0.48085,-0.48085 0.22774,-0.55681 -0.0504,-0.55675 -0.27829,-0.53147 -0.37966,-0.35432 m -5.74494,1.2401 0.0252,0.17716 0.22774,0.48086 0.45549,0.43021 0.63277,0.30372 0.78451,0.20244 0.86051,0.0506 0.83515,-0.0759 0.75923,-0.22781 0.6074,-0.35429 0.40494,-0.45555 0.15192,-0.48086 v -0.0506 m 32.16672,19.28486 -0.73396,0.53145 -0.50612,0.60742 -0.27848,0.65799 -0.0504,0.65804 0.22775,0.65801 0.45548,0.63271 0.68341,0.53147 0.86042,0.45555 1.01235,0.32901 1.11353,0.20246 1.16426,0.0506 1.16416,-0.10126 1.08817,-0.22775 0.98707,-0.35431 0.80987,-0.48086 0.63268,-0.55678 0.40494,-0.63271 0.15182,-0.68331 -0.10119,-0.65802 -0.32902,-0.63271 -0.58204,-0.58211 -0.7846,-0.50616 -0.70859,-0.32899 m -5.74493,0 -0.0252,0.0253 -0.91115,0.40493 m 0.93652,0.0759 -0.4303,0.22777 -0.65805,0.48083 -0.48085,0.58211 -0.20247,0.6074 0.0252,0.63271 0.27838,0.58206 0.50613,0.5568 0.73395,0.48086 0.88579,0.35429 1.01234,0.22781 1.06298,0.0759 1.08826,-0.0506 1.01225,-0.17714 0.93643,-0.32903 0.75923,-0.45551 0.55685,-0.53147 0.3543,-0.5821 0.10119,-0.6327 -0.1771,-0.6074 -0.37967,-0.58208 -0.63267,-0.5315 -0.60741,-0.32899 m -6.17523,0.80986 -0.65805,0.48086 -0.48076,0.58209 -0.20247,0.55678 m 9.28809,0 -0.15183,-0.40493 -0.37967,-0.58209 -0.63267,-0.50617 -0.60741,-0.35434 m -5.74493,0 -0.4303,0.2278 m -0.27839,1.89812 v 0.0759 l 0.15183,0.55677 0.4303,0.50617 0.63268,0.43024 0.83515,0.30369 0.91106,0.17714 0.98707,0.0254 0.93642,-0.15188 0.86043,-0.25308 0.68341,-0.40491 0.48085,-0.50616 0.22774,-0.53147 0.0252,-0.22778 m -6.45361,-1.82219 -0.25311,0.22777 -0.3543,0.53148 -0.10119,0.55678 0.15183,0.55678 0.43021,0.50616 0.63277,0.43024 0.83515,0.30368 0.91106,0.17718 0.98707,0.0253 0.93633,-0.15185 0.86052,-0.27839 0.68332,-0.37963 0.48094,-0.50617 0.22774,-0.53149 -0.0252,-0.58206 -0.30366,-0.53148 -0.35439,-0.35431 m -5.74493,1.2401 0.0252,0.20247 0.20247,0.45555 0.45558,0.43024 0.65795,0.32901 0.7846,0.17715 0.86042,0.0759 0.83524,-0.10123 0.75923,-0.22778 0.60741,-0.35434 0.37957,-0.43021 0.17719,-0.48086 v -0.0759 m -75.31727,-5.74496 -0.70869,0.53144 -0.5314,0.58212 -0.27838,0.65801 -0.0252,0.68332 0.20247,0.65802 0.48085,0.6074 0.65796,0.55677 0.88579,0.43022 1.01243,0.32903 1.11353,0.20247 1.1388,0.0506 1.16417,-0.0759 1.08826,-0.22775 0.98706,-0.37962 0.80988,-0.45555 0.63268,-0.58211 0.40493,-0.63271 0.15183,-0.65798 -0.10119,-0.68333 -0.32902,-0.63271 -0.58213,-0.58209 -0.75923,-0.50616 -0.73387,-0.30369 m -5.74503,0 h -0.0252 l -0.91115,0.43023 m 0.93642,0.0759 -0.43021,0.20244 -0.65795,0.50616 -0.45558,0.55681 -0.22774,0.6074 0.0252,0.6327 0.27848,0.60738 0.5314,0.5568 0.70859,0.45552 0.88588,0.35435 1.01234,0.22777 1.06289,0.10123 1.08825,-0.0506 1.03771,-0.20244 0.91106,-0.32901 0.75924,-0.43023 0.58204,-0.53148 0.32902,-0.60739 0.10128,-0.60741 -0.15183,-0.63269 -0.40503,-0.58212 -0.63259,-0.50617 -0.6074,-0.32898 m -6.17524,0.80986 -0.65795,0.48086 -0.45567,0.55676 -0.20247,0.55681 m 9.2629,0 -0.12655,-0.40494 -0.40503,-0.58208 -0.63259,-0.50617 -0.6074,-0.32904 m -5.74503,0 -0.43021,0.2278 m -0.27838,1.89812 v 0.0759 l 0.1771,0.55678 0.40494,0.50616 0.65804,0.40491 0.80988,0.32903 0.93642,0.15185 0.9617,0.0253 0.96171,-0.12653 0.83514,-0.27837 0.70869,-0.40494 0.48085,-0.48085 0.22774,-0.55678 v -0.20247 m -6.45362,-1.82219 -0.2531,0.22778 -0.3543,0.50616 -0.10119,0.55678 0.1771,0.55676 0.40494,0.50616 0.65804,0.43027 0.80988,0.32898 0.93642,0.15187 0.9617,0.0253 0.96171,-0.12655 0.83514,-0.27839 0.70869,-0.40495 0.48085,-0.48084 0.22774,-0.55677 -0.0504,-0.55678 -0.27829,-0.5568 -0.37966,-0.32899 m -5.74503,1.2401 0.0252,0.17716 0.22783,0.48085 0.45558,0.40494 0.63268,0.329 0.78459,0.20247 0.86043,0.0506 0.83514,-0.10123 0.75924,-0.22778 0.6074,-0.35431 0.40494,-0.43024 0.15192,-0.48086 v -0.0506 m 27.66178,82.35294 0.0755,0.9111 0.25311,0.73394 0.43021,0.55678 0.55686,0.35431 0.65795,0.15187 0.75923,-0.10125 0.78451,-0.329 0.80996,-0.53148 0.25302,-0.22777 m 2.78392,-5.01103 0.0504,-0.50616 v -0.93641 l -0.17711,-0.83517 -0.32902,-0.65802 -0.48085,-0.45554 -0.6074,-0.25309 h -0.73396 l -0.75924,0.20247 -0.80987,0.43024 -0.78451,0.63271 -0.75932,0.80986 -0.65795,0.93641 -0.55677,1.01232 -0.4303,1.06295 -0.25302,1.06294 -0.0755,0.98702 m 0.50612,-0.27839 0.0756,0.80987 0.25311,0.68332 0.40493,0.48086 0.55677,0.27839 0.65804,0.0506 0.7086,-0.17716 0.73395,-0.37963 0.25311,-0.17716 m 2.78392,-5.03634 v -0.86047 l -0.1772,-0.75924 -0.32902,-0.5821 -0.48085,-0.37961 -0.6074,-0.17717 -0.68332,0.0759 -0.75924,0.27839 -0.73395,0.50618 -0.7086,0.68331 -0.65804,0.83518 -0.55677,0.9364 -0.40493,0.98702 -0.25311,0.98702 -0.0756,0.9364 m 0.70869,1.94874 0.0504,0.0254 0.65804,0.0506 0.70859,-0.17716 0.75924,-0.40493 0.22783,-0.17717 m 2.78392,-5.01103 v -0.86047 l -0.1772,-0.75924 -0.32902,-0.5821 -0.20247,-0.20246 m -4.9857,5.41596 0.10119,0.73393 0.27838,0.55678 0.37967,0.32901 m 3.46723,-6.27643 -0.30375,-0.10124 h -0.6074 l -0.65796,0.22777 -0.65804,0.45556 -0.65796,0.65801 -0.53158,0.78456 -0.43021,0.88578 -0.27838,0.88578 -0.10119,0.86049 m 0.5314,0.27839 0.10128,0.73394 0.25311,0.55679 0.43021,0.37962 0.55677,0.12654 0.63276,-0.12654 0.17711,-0.0759 m 2.78391,-5.01102 -0.1771,-0.6074 -0.35439,-0.48086 -0.48085,-0.25308 h -0.6074 l -0.65805,0.22777 -0.68323,0.45555 -0.63276,0.65802 -0.55677,0.80986 -0.43021,0.86048 -0.25311,0.88578 -0.10128,0.86049 m 0.50622,-0.3037 0.0755,0.6327 0.25311,0.48085 0.25302,0.20247 m 2.78391,-5.01103 -0.40493,-0.12653 -0.55677,0.0759 -0.58204,0.3037 -0.58213,0.50616 -0.50621,0.65801 -0.40485,0.75925 -0.25311,0.78456 -0.0755,0.73394 m -1.7463,-37.02594 0.0755,0.88578 0.25311,0.75926 0.4303,0.55678 0.55677,0.35431 0.65795,0.12654 0.75923,-0.10123 0.7846,-0.32903 0.80988,-0.53145 0.2531,-0.20246 m 2.78383,-5.03634 0.0504,-0.48086 v -0.96174 l -0.1772,-0.80983 -0.32902,-0.65802 -0.48085,-0.45555 -0.60731,-0.25308 -0.73405,-0.0253 -0.75914,0.22778 -0.80997,0.43024 -0.78451,0.63271 -0.75923,0.78453 -0.65795,0.93643 -0.55686,1.03763 -0.43021,1.06292 -0.25311,1.03766 -0.0755,1.01233 m 0.50612,-0.3037 0.0756,0.83518 0.25311,0.65801 0.40493,0.50616 0.55677,0.2784 0.65804,0.0506 0.70869,-0.17716 0.73386,-0.40494 0.25311,-0.17716 m 2.78392,-5.01103 v -0.86047 l -0.1772,-0.75924 -0.32902,-0.60744 -0.48085,-0.37961 -0.6074,-0.15182 -0.68332,0.0506 -0.75924,0.3037 -0.73386,0.48086 -0.70869,0.7086 -0.65804,0.80989 -0.55677,0.9364 -0.40493,0.98702 -0.25311,0.98703 -0.0756,0.9364 m 0.70869,1.97405 h 0.0504 l 0.65804,0.0759 0.70869,-0.20244 0.75914,-0.37963 0.22783,-0.17717 m 2.78392,-5.03631 v -0.86049 l -0.1772,-0.75924 -0.32902,-0.58209 -0.20247,-0.20247 m -4.9857,5.41593 0.10128,0.73397 0.27838,0.58209 0.37958,0.32898 m 3.46723,-6.27641 -0.30375,-0.12654 h -0.60731 l -0.65805,0.22777 -0.65795,0.48083 -0.65804,0.63271 -0.5315,0.80988 -0.43021,0.86048 -0.27838,0.91111 -0.10128,0.83513 m 0.53149,0.27842 0.10119,0.73392 0.25311,0.58211 0.43021,0.35431 0.55686,0.12655 0.63267,-0.10124 0.17711,-0.0759 m 2.78391,-5.03631 -0.1771,-0.6074 -0.35439,-0.48085 -0.48076,-0.22778 -0.60749,-0.0253 -0.65796,0.25308 -0.68332,0.45555 -0.63267,0.65801 -0.55686,0.78456 -0.43021,0.88578 -0.25311,0.88579 -0.10119,0.83518 m 0.50613,-0.27842 0.0755,0.6327 0.25311,0.45558 0.25311,0.20246 m 2.78391,-5.01102 -0.40502,-0.12655 -0.55668,0.10124 -0.58213,0.27838 -0.58213,0.50617 -0.50612,0.65802 -0.40494,0.75924 -0.25311,0.78453 -0.0755,0.75925 m 2.75855,-23.96687 -0.73387,0.53147 -0.50622,0.6074 -0.27838,0.6327 -0.0504,0.68331 0.22784,0.65803 0.45548,0.60738 0.68332,0.5568 0.86051,0.45553 1.01225,0.32902 1.11362,0.17714 1.16417,0.0759 1.16417,-0.10123 1.08826,-0.2278 0.98706,-0.35429 0.80988,-0.48086 0.63268,-0.58209 0.40484,-0.60742 0.15192,-0.68329 -0.10119,-0.65802 -0.32911,-0.65802 -0.58204,-0.58208 -0.7846,-0.48085 -0.7085,-0.32901 m -5.74502,0 -0.0252,0.0253 -0.91106,0.40493 m 0.93643,0.0759 -0.43031,0.22774 -0.65795,0.48089 -0.48085,0.55678 -0.20247,0.6327 0.0252,0.60737 0.27838,0.60743 0.50612,0.55679 0.73396,0.45554 0.88579,0.37962 1.01234,0.22778 1.06298,0.0759 1.08826,-0.0506 1.01225,-0.20246 0.93642,-0.32901 0.75924,-0.43024 0.55685,-0.5315 0.35421,-0.60737 0.10128,-0.6074 -0.17719,-0.6327 -0.37958,-0.58209 -0.63268,-0.50617 -0.6074,-0.329 m -6.17524,0.80986 -0.65804,0.48086 -0.48076,0.58206 -0.20247,0.55681 m 9.28808,0 -0.15191,-0.40493 -0.37958,-0.58209 -0.63268,-0.53148 -0.6074,-0.32901 m -5.74493,0 -0.43031,0.22778 m -0.27838,1.89812 v 0.0759 l 0.15183,0.55679 0.4303,0.50616 0.63268,0.43021 0.83515,0.30373 0.91106,0.17716 h 0.98707 l 0.93642,-0.12655 0.86043,-0.27839 0.6834,-0.37962 0.48077,-0.50616 0.22783,-0.55678 0.0252,-0.20247 m -6.45361,-1.8222 -0.25311,0.22776 -0.3543,0.5315 -0.10119,0.55678 0.15183,0.55675 0.43021,0.50617 0.63277,0.43026 0.83515,0.3037 0.91106,0.17716 h 0.98707 l 0.93633,-0.12654 0.86052,-0.27842 0.68331,-0.40491 0.48086,-0.48088 0.22783,-0.55676 -0.0252,-0.55677 -0.30365,-0.5315 -0.3543,-0.3543 m -5.74502,1.24009 0.0252,0.17717 0.20247,0.48086 0.45557,0.43024 0.65796,0.30368 0.7846,0.20249 0.86051,0.0505 0.83515,-0.0759 0.75923,-0.22777 0.6074,-0.35433 0.37967,-0.43023 0.17719,-0.50617 v -0.0506 m -68.155152,-16.04538 56.968852,31.53404 m 0,0 -0.48085,0.32899 -0.48085,0.45557 -0.43021,0.53147 -0.35439,0.58209 -0.32902,0.63271 -0.22775,0.65801 -0.12655,0.6327 -0.0504,0.58209 m 0,0 -56.968852,-31.50874 m 0,0 0.0504,-0.60739 0.12655,-0.63271 0.22774,-0.65801 0.32903,-0.6074 0.37966,-0.6074 0.40494,-0.53148 0.48085,-0.43025 0.48085,-0.35429 m 64.333442,35.33028 0.0755,-0.96172 -0.0755,-0.91109 -0.25302,-0.73394 -0.43021,-0.55678 -0.55677,-0.35432 -0.65804,-0.15184 -0.75932,0.10123 -0.78451,0.329 -0.80987,0.53145 -0.75924,0.73397 -0.73396,0.86047 -0.60731,0.98702 -0.48094,1.06296 -0.32902,1.06293 -0.17711,1.03765 v 0.9364 l 0.17711,0.83517 0.32902,0.65802 0.48094,0.45554 0.60731,0.25309 h 0.73396 l 0.75924,-0.20247 0.80987,-0.43024 0.65804,-0.50616 m 2.78383,33.05254 0.0755,-0.98702 -0.0755,-0.88579 -0.25302,-0.75925 -0.43021,-0.55678 -0.55677,-0.35431 -0.65804,-0.12654 -0.75932,0.10123 -0.78451,0.32901 -0.80987,0.53147 -0.75924,0.70863 -0.73396,0.88579 -0.60731,0.98702 -0.48094,1.03763 -0.32902,1.06296 -0.17711,1.03763 v 0.96171 l 0.17711,0.80986 0.32902,0.65803 0.48094,0.45554 0.60731,0.25308 0.73396,0.0253 0.75924,-0.22777 0.80987,-0.43024 0.65804,-0.50616 m 29.18034,-14.52693 -4.96043,3.01165 m 0,-13.16028 v 13.16028 m 2.83456,-18.14598 0.12655,-0.9364 -0.0252,-0.9364 -0.22775,-0.78457 -0.37966,-0.60739 -0.50612,-0.43024 -0.65805,-0.20246 -0.73396,0.0506 -0.7845,0.27839 -0.80988,0.48085 -0.63268,0.53148 m -2.63208,5.08695 v 0.0253 l -0.0504,0.98702 0.15192,0.86049 0.30365,0.7086 0.45558,0.50616 0.6074,0.27842 0.68323,0.0506 0.7846,-0.15184 m 0,0 v 13.23618 m 0,0 -14.40034,8.68074 m -5.69438,3.41662 -7.21285,4.35301 m -2.48017,-1.44257 0.0504,0.53147 0.12655,0.48086 0.22775,0.35432 0.32902,0.27839 0.35439,0.12653 h 0.43021 l 0.48085,-0.10123 0.48085,-0.22777 m -2.48017,-10.22452 v 8.78195 m 2.48017,-13.2109 -0.48085,0.35429 -0.48085,0.43027 -0.43021,0.53147 -0.35439,0.6074 -0.32902,0.6327 -0.22775,0.63272 -0.12655,0.6327 -0.0504,0.6074 m 12.40102,-10.40171 -9.92085,5.97276 m 9.92085,-5.97276 v -20.29685 m -2.708,-1.51849 -7.21285,4.35299 m -2.48017,-1.41724 0.0504,0.53146 0.12655,0.45556 0.22775,0.37963 0.32902,0.25308 0.35439,0.15186 h 0.43021 l 0.48085,-0.10126 0.48085,-0.25309 m -2.48017,-10.2245 v 8.80726 m 29.78774,-29.66124 -27.30757,16.45035 m 27.30757,-16.45035 v 13.26152 m 0,0 -0.7846,0.75924 -0.68332,0.9111 -0.60731,0.98702 -0.45558,1.06294 -0.30374,1.08826 -0.15183,1.01233 0.0504,0.9364 0.20247,0.78455 0.37966,0.63272 0.53149,0.4049 0.63277,0.20248 0.73387,-0.0506 0.78459,-0.25309 0.80979,-0.50617 0.78459,-0.65803 0.73387,-0.86045 0.65814,-0.96172 0.50612,-1.03763 0.37957,-1.08826 0.22784,-1.03764 0.0252,-0.98702 -0.12655,-0.86051 -0.32902,-0.68329 -0.45558,-0.50616 -0.58204,-0.3037 -0.70868,-0.0506 -0.75924,0.17716 m 0,-13.28682 v 13.28682 m 4.96043,-16.2732 -4.96043,2.98638 m 4.96043,-2.98638 v 38.74691 m 0,6.58013 v 7.39 m -75.08953,-40.67032 38.84817,21.512 m -38.84817,7.79493 v -29.30693 m 38.84817,50.79361 -38.84817,-21.48668 m -18.120682,-1.26542 56.968852,31.53406 M 96.372188,223.34236 v 8.78197 m 7.769612,-4.47957 -7.769612,-4.3024 m 7.769612,-24.9792 v 29.2816 m -7.769612,-33.58399 7.769612,4.30239 m -7.769612,-13.08435 v 8.78196 m 10.351062,15.96949 0.10128,0.6327 0.27838,0.6327 0.43021,0.53146 0.48086,0.40495 0.50621,0.15186 0.43021,-0.0759 0.27838,-0.329 0.10119,-0.50616 -0.10119,-0.60741 -0.27838,-0.6327 -0.43021,-0.55681 -0.50621,-0.37962 -0.48086,-0.17713 -0.43021,0.10123 -0.27838,0.3037 -0.10128,0.50616 m 79.24009,-19.9935 3.61906,1.99935 m -8.60485,0.98702 3.64442,1.99936 m -3.64442,-1.99936 -1.46783,0.9111 m 0,0 3.61906,1.99935 m -30.92654,-47.22515 -24.04281,14.50161 m -5.74503,3.44189 -23.561952,14.19795 m 59.676762,-32.95132 -0.55677,-0.25308 h -0.0252 m 0.58213,0.25308 2.73328,1.5185 m 5.74493,3.16353 24.04281,13.3121 m 5.74493,3.18886 13.51464,7.46592 m 0.12656,2.93577 0.43021,-0.30373 0.30374,-0.37962 0.20238,-0.37963 0.0504,-0.40491 -0.0756,-0.40492 -0.22784,-0.37963 -0.32893,-0.35431 -0.48085,-0.32902 m 0.12656,2.93577 -15.89362,9.56648 m -3.61907,-1.99933 3.61907,1.99933 m -3.61907,-1.99933 -4.96042,2.98637 m 3.92281,-17.61452 -22.87864,13.76768 m -5.74493,3.46722 -8.63013,5.18819 m 14.37506,-35.0772 22.87864,12.65411 m -28.62357,-9.71836 -31.91371,19.23425 m 0,0 23.28358,12.9072 m -1.26545,-35.15316 0.91106,0.43027 1.06298,0.27839 1.11362,0.15184 h 1.16417 l 1.13889,-0.15184 1.0629,-0.27839 0.93642,-0.40493 0.75924,-0.50616 0.55676,-0.5821 0.30366,-0.65801 0.0755,-0.65801 -0.1771,-0.65805 -0.43021,-0.63269 -0.63277,-0.55677 -0.86042,-0.45557 -0.40494,-0.17713 m -5.74493,0 -0.35439,0.15185 -0.86042,0.45555 -0.65805,0.55677 -0.43021,0.60741 -0.20247,0.65801 0.0756,0.68332 0.30365,0.65801 0.53149,0.58207 0.75924,0.50616 m 38.8228,21.512 0.93643,0.40495 1.03771,0.27839 1.1388,0.15185 h 1.16417 l 1.1389,-0.12654 1.06289,-0.27839 0.93642,-0.40493 0.75924,-0.50616 0.53158,-0.6074 0.32893,-0.6327 0.0756,-0.68335 -0.1771,-0.65799 -0.4303,-0.63271 -0.65795,-0.55678 -0.83524,-0.45555 -0.40494,-0.17716 m -5.74493,0 -0.3543,0.15185 -0.86051,0.45556 -0.65796,0.55677 -0.4303,0.63271 -0.20247,0.65802 0.0504,0.65798 0.30366,0.65804 0.55677,0.58209 0.73396,0.53145 m -29.78775,17.94356 0.93634,0.4049 1.03771,0.27842 1.1388,0.15185 h 1.16417 l 1.1389,-0.15185 1.06298,-0.27842 0.93642,-0.37962 0.75915,-0.53145 0.53158,-0.58209 0.32893,-0.6327 0.0755,-0.68332 -0.1771,-0.65802 -0.43021,-0.63271 -0.65814,-0.55678 -0.83514,-0.45555 -0.40485,-0.17715 m -5.74502,0 -0.3543,0.15184 -0.86042,0.45553 -0.65805,0.5568 -0.4303,0.60741 -0.20247,0.68332 0.0504,0.65801 0.30366,0.65799 0.55686,0.58211 0.73386,0.53148 m -38.8228,-21.51199 0.91115,0.4049 1.06289,0.30373 1.11353,0.15184 h 1.16417 l 1.13889,-0.15184 1.06298,-0.27839 0.93643,-0.40497 0.75923,-0.50616 0.55677,-0.58207 0.30375,-0.658 0.0755,-0.65805 -0.17719,-0.6833 -0.43021,-0.60739 -0.63268,-0.55678 -0.8606,-0.48086 -0.40485,-0.15185 m -5.74494,0 -0.35438,0.12654 -0.86051,0.48086 -0.65796,0.53147 -0.4303,0.63271 -0.20247,0.65802 0.0756,0.68329 0.30374,0.6327 0.53149,0.60743 0.75924,0.50617 m -4.47958,29.12974 -0.0504,-0.0253 -0.70868,-0.48089 -0.65796,-0.60737 -0.63277,-0.73394 -0.55676,-0.83517 m 22.22068,19.86696 0.80988,0.45555 1.08816,0.45552 1.06298,0.20248 h 0.9617 l 0.88579,-0.25308 0.75932,-0.48085 0.63259,-0.68333 0.4303,-0.88578 0.27839,-1.06297 0.0504,-0.22775 m 2.40425,9.56651 -0.0756,-0.35434 -0.15192,-0.37962 -0.25302,-0.32898 -0.30375,-0.22778 -0.30365,-0.10123 -0.25302,0.0506 -0.15192,0.17715 -0.0756,0.30368 0.0756,0.37961 0.15192,0.37963 0.25302,0.32904 0.30365,0.22777 0.30375,0.10123 0.25302,-0.0506 0.15192,-0.20248 0.0756,-0.30369 m -26.4977,-12.12267 5.13753,2.83455 m 8.048,4.47955 32.97668,18.24721 m 15.23549,-51.45158 v 1.72094 m -0.83515,20.75274 0.3543,-0.20244 m 3.46732,-6.27644 v -0.48089 l -0.0755,-0.63269 m -0.75924,-0.43022 1.4932,0.83517 m -70.12911,25.08045 0.48085,-0.30372 0.55677,-0.30367 0.58213,-0.35432 0.63267,-0.35434 0.63268,-0.37962 0.60741,-0.35429 0.58213,-0.35432 0.53149,-0.30372 0.48085,-0.30367 m 0,0 36.24136,20.06942 m -52.79302,-34.03956 -4.175832,2.50549 m 90.730042,21.66386 1.34136,-0.80986 m 0,-52.71704 v 44.49186 m 0,6.55484 v 1.67034 m -4.58085,-28.21867 -0.0756,-0.73397 -0.27839,-0.55675 -0.43021,-0.35432 -0.55685,-0.12654 -0.63268,0.10123 -0.65796,0.35432 -0.68332,0.55678 -0.58213,0.73394 -0.50612,0.83517 -0.35439,0.91109 -0.1771,0.86048 v 0.80987 l 0.1771,0.65802 0.35439,0.45554 0.50612,0.25309 h 0.58213 l 0.68332,-0.22778 0.65796,-0.45557 0.63268,-0.658 0.55685,-0.78454 0.43021,-0.8858 0.27839,-0.88579 0.0756,-0.86047 m 24.09345,20.65148 v -52.71701 m 0,52.71701 -8.78196,5.28945 m -5.66902,3.41662 -1.44264,0.86047 m 0,-52.71706 v 44.49189 m 0,6.55482 v 1.67035 m -3.61898,-1.99935 3.61898,1.99935 m -97.436592,-7.9974 v 0 l -0.32902,-0.25308 -0.22784,-0.37963 -0.12655,-0.45555 -0.0504,-0.55678 m 23.207572,-23.9922 v 22.24594 m 23.73915,-7.56716 -0.45549,-0.0506 -1.06298,-0.35433 -1.08834,-0.53147 -1.11353,-0.78455 -1.03762,-0.93641 -0.98697,-1.08825 -0.10128,-0.15187 m 46.49123,7.69372 v -0.40493 m -3.72034,7.59247 2.8851,1.61973 m 3.21422,-6.40299 -0.0756,-0.58208 -0.27839,-0.58209 -0.4303,-0.35432 -0.55676,-0.12654 -0.63268,0.10123 -0.43021,0.20247 m -2.45499,5.21349 0.10128,0.30371 0.35439,0.48085 0.50612,0.22778 0.58204,0.0253 0.22775,-0.0759 m -80.22706,-34.87472 v 0 l 0.10127,-0.0253 0.20247,-0.12655 0.3543,-0.20247 0.45549,-0.25308 m -7.035662,-2.65736 v -0.0253 l -0.32902,-0.25308 -0.22775,-0.35432 -0.12655,-0.48085 -0.0504,-0.53148 m 6.656092,29.96494 0.0252,0.45553 0.12646,0.78458 0.22775,0.80986 0.32902,0.78455 0.40494,0.78453 m 76.83574,5.51723 v 1.06291 m 30.44587,-3.44189 -0.0504,0.35431 -0.20237,0.37963 -0.30375,0.37962 -0.4303,0.30368 m -27.30758,14.72941 1.49319,0.83514 m -88.249782,-24.42243 0.0504,-0.60737 0.12655,-0.63272 0.22775,-0.63269 0.32902,-0.63272 0.37966,-0.58208 0.40494,-0.53148 0.48085,-0.45554 0.48085,-0.35435 m 81.036932,167.16089 v -3.51783 m -2.53081,4.98567 2.53081,-1.46784 m -18.95571,-207.07201 -17.66519,10.65476 m 27.02919,-5.46657 -3.29004,-1.8222 m -5.74493,-3.16353 -0.32903,-0.20246 m -17.69046,10.62945 16.65285,-10.02206 m 0,0 1.03761,-0.60739 m 21.56255,136.28481 -0.0756,-0.0507 m -25.02978,-28.85137 -18.57626,11.18623 m 47.60476,4.88449 -19.4114,-10.75599 m -5.74493,-3.18884 -3.87217,-2.12589 m 21.43599,36.77286 0.10128,0.55681 0.25311,0.37957 0.40493,0.15188 0.45549,-0.076 m 1.7463,-3.13821 -0.0755,-0.20246 -0.25311,-0.37963 -0.40494,-0.15183 -0.48085,0.0759 -0.50622,0.32901 -0.48076,0.50618 -0.40493,0.63271 -0.25311,0.6833 -0.10128,0.63272 m 13.8183,4.78328 -0.1771,-0.17718 -0.25311,-0.0254 -0.2783,0.12654 -0.27847,0.25309 -0.22774,0.35435 -0.15192,0.37963 -0.0504,0.35429 0.0756,0.30372 0.17719,0.15182 0.25302,0.0254 0.27838,-0.10126 0.27847,-0.25309 0.22774,-0.35434 0.15183,-0.37958 0.0504,-0.37963 -0.0756,-0.27837 m -64.81438,-105.86437 0.15182,0.37963 0.25311,0.32903 0.30375,0.25308 0.30375,0.10123 0.25301,-0.0253 0.17711,-0.17716 0.0755,-0.3037 -0.0504,-0.35431 -0.15192,-0.37962 -0.2531,-0.35432 -0.30366,-0.2278 -0.30366,-0.12654 -0.25302,0.0506 -0.17728,0.17716 -0.0755,0.27836 0.0504,0.37962 m 61.01821,109.86302 0.86042,-0.5821 0.80988,-0.75926 0.40493,-0.45548 m 1.69566,-3.03701 0.20247,-0.73397 0.20247,-1.11356 v -1.0123 l -0.17719,-0.8858 -0.3543,-0.70864 -0.53149,-0.48083 -0.65795,-0.27843 -0.73396,-0.0254 -0.83524,0.22781 -0.86042,0.45554 -0.83515,0.68329 -0.80987,0.83518 -0.7086,1.0123 -0.60749,1.08826 -0.43021,1.1389 -0.27839,1.11356 -0.10118,1.06292 0.0755,0.96172 0.27838,0.78456 0.45549,0.60743 0.58222,0.40492 0.7085,0.12654 0.7846,-0.10126 0.86051,-0.329 m -0.32902,-10.07267 0.86051,-0.329 0.78451,-0.10126 0.70868,0.12654 0.20238,0.10126 m -5.56783,10.04738 -0.10119,-0.076 -0.53149,-0.50618 -0.35429,-0.70858 -0.17711,-0.86052 v -1.01229 l 0.20238,-1.11356 0.35439,-1.1389 0.5314,-1.11355 0.65804,-1.06292 0.75923,-0.9111 0.80988,-0.78455 0.86051,-0.5568 m -0.30375,6.80792 -0.0755,-0.0254 -0.22774,-0.35429 -0.0756,-0.50618 0.12655,-0.63272 0.27839,-0.63266 0.43021,-0.55681 0.48094,-0.35429 0.45549,-0.15189 0.32893,0.0759 m -5.16281,-4.58076 0.7086,-0.27837 0.68332,-0.0506 0.55685,0.17716 m -4.25183,7.6684 h -0.0252 l -0.4303,-0.40492 -0.30366,-0.60743 -0.15182,-0.78456 0.0504,-0.88575 0.22783,-0.93643 0.37957,-0.98702 0.50613,-0.91109 0.63277,-0.83518 0.68331,-0.65801 0.73396,-0.50618 m 0.0504,-1.13883 0.86052,-0.32907 0.7845,-0.10119 0.70869,0.12654 0.58204,0.40492 0.45557,0.60743 0.25311,0.78455 0.0755,0.50612 m -4.20119,7.66839 -0.40493,0.17718 -0.83515,0.22779 -0.75933,-0.0254 -0.63267,-0.27837 -0.5314,-0.4809 -0.35439,-0.70858 -0.1772,-0.8858 v -1.01236 l 0.20247,-1.11355 0.35439,-1.13884 0.5314,-1.11356 0.65804,-1.03763 0.75924,-0.93644 0.80996,-0.7592 0.86042,-0.5821 m -0.75923,-0.43026 0.83515,-0.32901 0.7846,-0.10126 0.70859,0.12655 0.20247,0.10126 m -5.54247,10.04732 -0.12655,-0.0759 -0.50622,-0.48083 -0.37957,-0.70864 -0.17719,-0.88581 v -1.01229 l 0.20246,-1.11355 0.3543,-1.1389 0.53149,-1.11355 0.65805,-1.03765 0.75923,-0.93638 0.83515,-0.75926 0.86051,-0.58209 m -53.70409,-91.99542 0.75924,-0.12655 0.63268,-0.35428 0.50621,-0.55679 0.30366,-0.78455 0.15192,-0.93641 -0.0765,-1.03766 -0.25301,-1.11353 -0.43021,-1.11357 -0.58213,-1.08825 -0.73396,-1.01233 -0.80988,-0.86051 -0.88578,-0.68329 -0.88579,-0.48086 -0.88579,-0.25308 h -0.80987 l -0.68332,0.22777 -0.58204,0.48086 -0.40494,0.65802 -0.22783,0.86047 -0.0252,0.98703 0.15183,1.08825 0.35438,1.13887 0.50613,1.11356 0.65804,1.03764 0.7846,0.9364 0.83506,0.78456 0.91115,0.58207 0.88579,0.37961 0.83514,0.12655 m -1.24008,-3.59375 0.40494,-0.12654 0.2531,-0.32903 0.0756,-0.53145 -0.12655,-0.6327 -0.30366,-0.63271 -0.4303,-0.53147 -0.50613,-0.35432 -0.48085,-0.12654 -0.40494,0.12654 -0.2531,0.35432 -0.0756,0.53147 0.12656,0.6074 0.30365,0.6327 0.4303,0.53148 0.50613,0.35431 0.48085,0.12654 m 3.13821,2.8345 0.25311,-0.15183 0.48085,-0.58209 0.32902,-0.78458 0.12656,-0.91107 -0.0756,-1.06294 -0.25302,-1.11356 -0.43021,-1.11357 -0.58213,-1.08825 -0.70859,-1.01232 -0.83515,-0.86049 -0.86051,-0.68334 -0.91115,-0.48084 -0.86042,-0.25308 h -0.80988 l -0.70868,0.22775 -0.0756,0.0506 m 8.78205,6.5295 0.27838,-0.20244 0.37958,-0.55681 0.20246,-0.7086 0.0252,-0.86048 -0.15183,-0.91111 -0.32911,-0.96171 -0.48076,-0.9364 -0.63277,-0.86047 -0.68323,-0.73395 -0.75923,-0.53147 -0.75933,-0.35432 -0.73396,-0.12654 -0.63268,0.12654 -0.25301,0.10124 m 5.99804,1.72095 0.12646,0.22776 0.50622,1.11358 0.3543,1.13888 0.15182,1.06293 -0.0252,1.01234 -0.22774,0.83517 -0.40494,0.68332 -0.50622,0.43024 m -1.89812,0.75925 0.75932,-0.12654 0.63268,-0.35432 0.48085,-0.55678 0.32902,-0.78455 0.12656,-0.93641 -0.0504,-1.03763 -0.25311,-1.11357 -0.45549,-1.11358 -0.58213,-1.08824 -0.70859,-1.01232 -0.10128,-0.10124 m -3.97336,-2.20181 -0.20247,0.0253 -0.70859,0.22777 -0.55686,0.45555 -0.43021,0.68331 -0.20247,0.86046 -0.0252,0.12655 m 4.68204,7.79495 0.37966,0.12655 0.86043,0.12653 M 174.64995,56.535388 v 17.58921 m 0,0 -0.27829,0.12655 -0.30375,0.10123 -0.32902,0.0506 -0.3543,0.0254 h -0.35429 l -0.32903,-0.0759 -0.30374,-0.076 -0.27839,-0.12654 m 0,0 v -17.58921 m 0,0 0.27839,0.12653 0.30374,0.10126 0.32903,0.0506 0.35429,0.0253 0.3543,-0.0253 0.32902,-0.0759 0.30375,-0.10124 0.27829,-0.12654 m -62.08101,-32.926 59.5502,32.95129 m -59.62612,-34.419198 -0.20247,0.177193 -0.15192,0.177149 -0.10118,0.202468 -0.0252,0.202441 0.0252,0.177185 0.12655,0.202432 0.17719,0.177193 0.22775,0.151847 M 149.74663,-0.28153157 112.49302,22.14153 m 39.78451,-22.44836357 -0.27838,-0.126545 -0.30366,-0.07591 -0.35439,-0.07591 h -0.35429 l -0.32903,0.02528 -0.35429,0.05055 -0.30375,0.101261 -0.25311,0.126545 M 211.82774,32.644409 152.27753,-0.30687357 m 59.60085,34.41918157 0.22783,-0.151846 0.15183,-0.177176 0.10128,-0.202441 0.0252,-0.202468 -0.0504,-0.202468 -0.10118,-0.177158 -0.1772,-0.177157 -0.22783,-0.177185 m 0.0504,1.467899 -37.2282,22.42317 m -62.0811,-32.926004 v 17.589217 m 0,0 59.55029,32.951287 M 211.87854,51.70161 V 34.112384 M 174.65011,74.124698 211.87854,51.70161 m -32.74885,15.918878 -0.0756,-0.30373 -0.15183,-0.17713 -0.2531,-0.0506 -0.27839,0.10121 -0.27838,0.22779 -0.25311,0.35433 -0.15182,0.37961 -0.0504,0.35432 0.0504,0.3037 0.15182,0.20247 0.25311,0.0253 0.27838,-0.10123 0.27839,-0.2278 0.2531,-0.32898 0.15183,-0.37963 0.0756,-0.37962 m 29.78783,-17.943536 -0.0756,-0.303694 -0.15182,-0.177157 -0.25311,-0.05064 -0.27838,0.101235 -0.27839,0.25308 -0.25301,0.329004 -0.15192,0.379626 -0.0504,0.379626 0.0504,0.303702 0.15192,0.177148 0.25301,0.05055 0.27839,-0.101216 0.27838,-0.253081 0.25311,-0.329004 0.15182,-0.379626 0.0756,-0.379625 m -14.40043,6.630738 -0.10128,0.60741 -0.27838,0.63271 -0.40485,0.55678 -0.45557,0.40494 -0.48094,0.17715 -0.40485,-0.0759 -0.27838,-0.30369 -0.0756,-0.50616 0.0756,-0.63272 0.27838,-0.63269 0.40485,-0.55679 0.48094,-0.40492 0.45557,-0.17716 0.40485,0.0759 0.27838,0.32899 0.10128,0.50617 m 17.86757,-5.340016 -0.0252,0.202469 -0.10128,0.177157 -0.15183,0.177148 -0.22783,0.177167 m -99.30944,-10.502919 -0.22775,-0.177158 -0.17719,-0.177157 -0.12655,-0.177158 -0.0252,-0.202468 v -0.02528 m 53.95719,278.061467 1.31609,0.73399 m 2.75855,-1.69565 -2.75855,1.69565 m 1.46783,-2.40434 1.29072,0.70869 m -1.29072,-0.70869 -2.78392,1.67035 m -43.8085,-27.45941 -2.78392,1.67035 m 0,0 1.29072,0.70862 m 1.7463,-1.03762 -1.7463,1.03762 m 1.4932,-2.37897 0.2531,0.15185 m 29.78775,-22.06877 -0.20247,-0.10122 -0.30366,-0.0759 -0.35439,-0.0506 -0.35429,-0.0253 -0.32903,0.0253 -0.35429,0.0506 -0.30375,0.10122 -0.25311,0.15186 m 56.89297,30.04077 -9.84485,-5.44127 m -5.74493,-3.18884 -24.04281,-13.31211 m -5.74502,-3.16354 -3.31541,-1.8475 m 48.76902,28.42115 0.20238,-0.15186 0.15183,-0.17717 0.10128,-0.20246 0.0252,-0.20245 -0.0252,-0.20247 -0.12655,-0.20246 -0.15183,-0.15187 -0.25311,-0.17715 m -6.14987,5.2135 6.22587,-3.74561 m -8.75668,3.77091 0.27838,0.12654 0.30366,0.10124 0.35439,0.0506 0.35429,0.0253 0.3543,-0.0253 0.32902,-0.0759 0.30366,-0.10123 0.25311,-0.12653 m -7.6937,-2.83453 5.16289,2.85983 m -5.16289,-2.85983 -22.34715,13.43865 m 0,0 5.16289,2.88516 m 0.0756,1.46785 0.20247,-0.17711 0.15183,-0.17718 0.10118,-0.20246 0.0252,-0.20246 -0.0252,-0.20246 -0.12646,-0.17717 -0.17719,-0.17718 -0.22775,-0.15183 m -6.14996,5.1882 6.22588,-3.72035 m -8.75668,3.74563 0.27838,0.12655 0.30375,0.10126 0.35429,0.0507 0.3543,0.0254 0.32902,-0.0254 0.3543,-0.0759 0.30366,-0.10119 0.2531,-0.12655 m -56.89284,-30.06618 54.36204,30.09146 m -54.43796,-31.53403 -0.20247,0.15184 -0.15192,0.17717 -0.10118,0.20246 -0.0252,0.20247 0.0252,0.20246 0.12655,0.17717 0.17719,0.17715 0.22775,0.15185 m 37.17769,-23.86566 -21.58782,12.98313 m -5.74494,3.46722 -9.92085,5.97274 m 38.87336,-12.9325 -22.34715,13.46397 m 0,0 32.24273,17.84227 m 5.74502,3.16355 0.86042,0.48083 m 22.32179,-13.46395 -22.32179,13.46395 m -16.50102,-34.95062 9.89558,5.49187 m 5.74502,3.16353 23.18221,12.83127 m -37.10179,-22.52431 0.7086,0.27839 0.80996,0.15185 h 0.86042 l 0.80987,-0.12655 0.7086,-0.27838 0.55676,-0.37962 0.32903,-0.45557 0.0756,-0.40491 m -5.74493,0 0.0755,0.35431 0.30375,0.45555 0.50612,0.40493 m 38.84818,21.48669 0.70859,0.27838 0.80987,0.15185 0.83515,0.0253 0.83515,-0.15185 0.70859,-0.27839 0.55686,-0.37962 0.30365,-0.45555 0.10128,-0.37962 m -5.74493,0 0.0504,0.329 0.30374,0.45555 0.5315,0.40494 m -68.63601,-3.56848 0.70869,0.30371 0.80987,0.15186 h 0.86051 l 0.80978,-0.12655 0.70869,-0.27839 0.55676,-0.37962 0.32902,-0.45555 0.0756,-0.40493 m -5.74503,0 0.0756,0.35431 0.30366,0.45555 0.50612,0.37961 m 38.84817,21.51198 0.7086,0.27844 0.80996,0.15183 h 0.83515 l 0.83515,-0.12655 0.70859,-0.27837 0.55685,-0.37963 0.32894,-0.45555 0.0756,-0.40491 m -5.74502,0 0.0504,0.35429 0.30365,0.45554 0.53149,0.40491 m -9.94612,-42.64434 -1.7463,1.06294 m 1.49319,-2.40428 0.25311,0.15186 m -0.25311,-0.15186 -2.78392,1.67035 m 0,0 1.29073,0.73393 m 45.3017,25.08046 1.29081,0.70863 m 2.78383,-1.67035 -2.78383,1.67035 m 1.4931,-2.40428 1.29073,0.73393 m -1.29073,-0.73393 -2.78391,1.69565 m -26.29524,22.54966 v 35.15312 m 0,0 -0.2531,0.12654 -0.30366,0.1012 -0.3543,0.0759 -0.32902,0.0254 -0.3543,-0.0254 -0.35429,-0.0506 -0.30375,-0.10126 -0.27838,-0.12654 m 0,0 V 323.1577 m -54.36204,5.06165 54.36204,30.09147 m -54.36204,-65.24461 v 35.15314 m 63.11872,21.94224 v -30.74952 m 24.80204,15.79238 -24.80204,14.95714 m 24.80204,-45.70668 v 30.74954 m 6.22588,0.658 v -35.15316 m -37.2538,57.57624 37.2538,-22.42308 m -2.98639,-29.53473 -0.0504,-0.30369 -0.17719,-0.20248 -0.22774,-0.0506 -0.30366,0.12655 -0.27838,0.22776 -0.22784,0.329 -0.17719,0.37963 -0.0504,0.37962 0.0504,0.30369 0.17719,0.17717 0.22784,0.0506 0.27838,-0.10123 0.30366,-0.22777 0.22774,-0.35432 0.17719,-0.37962 0.0504,-0.35433 m -29.78783,17.91828 -0.0504,-0.30372 -0.1771,-0.17718 -0.22775,-0.0507 -0.30374,0.1012 -0.27839,0.25309 -0.22774,0.329 -0.17719,0.37964 -0.0504,0.37963 0.0504,0.30366 0.17719,0.17718 0.22774,0.0506 0.27839,-0.10127 0.30374,-0.25302 0.22775,-0.32901 0.1771,-0.37962 0.0504,-0.37964 m 2.22715,24.16935 -0.0252,0.37963 -0.10128,0.45555 -0.15183,0.45555 -0.20247,0.45555 m -6.93447,-31.83775 v -1.49324 m 24.04281,14.0714 v -2.25239 m 0,-1.26544 v -0.83519 m 0,-3.34066 v -21.58795 m 0,29.28163 -16.62749,9.99675 m 11.64179,-21.63852 -0.0756,-1.18948 -0.27838,-1.03763 -0.4303,-0.88581 -0.58204,-0.658 -0.73396,-0.45555 -0.83515,-0.22781 h -0.93642 l -1.01234,0.22781 -1.03762,0.48083 -1.06298,0.68335 -1.03762,0.88575 -0.9617,1.03764 -0.91106,1.21481 -0.78451,1.29072 -0.65804,1.36665 -0.30375,0.73392 m 0,7.06102 0.30375,0.40491 0.65804,0.55681 0.78451,0.35428 0.91106,0.10127 0.9617,-0.12655 1.03762,-0.35429 1.06298,-0.58209 0.43021,-0.30372 m 5.46664,-9.89549 0.0252,-0.68335 m 2.25242,-10.42702 -0.0756,-0.3037 -0.15183,-0.20247 -0.22783,-0.0253 -0.30366,0.10122 -0.27838,0.22778 -0.25302,0.32901 -0.15192,0.40492 -0.0504,0.35432 0.0504,0.30373 0.15192,0.20246 0.25302,0.0254 0.27838,-0.1012 0.30366,-0.2278 0.22783,-0.35431 0.15183,-0.37962 0.0756,-0.35433 m -4.83387,8.98444 -0.0755,-1.18952 -0.27839,-1.03758 -0.40484,-0.80989 m -8.3012,15.00777 h 0.0504 l 0.98707,-0.12655 1.03761,-0.37963 1.03771,-0.55674 0.83515,-0.60744 m 5.03634,-9.13623 0.0755,-1.16419 m 12.73004,15.94416 v -29.28161 m 0,29.28161 0.25311,0.15189 0.27838,0.15183 0.27839,0.15182 0.32893,0.17718 0.30375,0.17718 0.30374,0.17717 0.30366,0.17711 0.25302,0.1519 0.22783,0.12654 m -7.6937,-4.30244 5.16289,2.85982 m 9.23745,1.39199 -0.0252,0.17711 -0.10128,0.20252 -0.15183,0.17712 -0.20246,0.15188 m -8.17456,-35.48216 v -1.49319 m -47.17455,-8.88319 v -11.31277 m -38.79753,49.52821 -0.22775,-0.15183 -0.17719,-0.17717 -0.12655,-0.20246 -0.0252,-0.20246 m 10.1486,-34.9507 v -1.49317 m 29.78783,-16.45035 v -1.4932 m -53.096682,-54.18493 4.175832,2.32838 m 36.69693,-1.11356 0.91106,0.37962 0.83515,0.15185 0.63277,-0.0506 m -4.2011,-1.97404 0.10119,0.10124 0.83515,0.78455 0.88578,0.6074 m 36.62102,104.54829 0.10119,0.93643 0.27839,0.80984 0.4303,0.58208 0.58204,0.37964 0.73395,0.15183 0.7846,-0.1012 0.63268,-0.25309 m 4.3783,-7.89619 -0.1771,-0.78455 -0.35439,-0.68329 -0.5314,-0.50617 -0.65805,-0.25309 -0.75923,-0.0254 -0.83524,0.22774 -0.83514,0.45555 -0.86043,0.68335 -0.7846,0.86047 -0.73395,0.98701 -0.58204,1.08826 -0.4303,1.13884 -0.27839,1.1389 -0.10119,1.06293 m 6.0486,-9.41467 0.15191,0.0506 0.22775,0.10126 m 7.82025,14.60286 -0.0504,-0.0254 -0.2531,-0.32901 -0.0756,-0.50617 0.10119,-0.58209 0.25311,-0.63266 0.40493,-0.55681 0.45558,-0.40492 0.45549,-0.17717 0.40502,0.0506 0.0252,0.0254 m -16.14673,20.01885 21.79047,-13.13502"
         style="fill:none;stroke:#ffff00;stroke-width:0.60000001;stroke-linecap:round;stroke-linejoin:round;stroke-miterlimit:10;stroke-dasharray:none;stroke-opacity:1" />
    </g>
    <use
       x="0"
       y="0"
       xlink:href="#g5"
       id="use3"
       inkscape:label="Blur3"
       style="filter:url(#filter9)" />
    <use
       x="0"
       y="0"
       xlink:href="#g5"
       id="use4"
       inkscape:label="Blur6"
       style="filter:url(#filter8)" />
    <use
       x="0"
       y="0"
       xlink:href="#g5"
       id="use5"
       inkscape:label="Blur12"
       style="filter:url(#filter10)" />
    <use
       x="0"
       y="0"
       xlink:href="#g5"
       id="use6"
       inkscape:label="Blur24"
       style="filter:url(#filter11)" />
    <use
       x="0"
       y="0"
       xlink:href="#g5"
       id="use7"
       inkscape:label="Blur48"
       style="filter:url(#filter12)" />
    <use
       x="0"
       y="0"
       xlink:href="#g5"
       id="use8"
       inkscape:label="Blur96"
       style="filter:url(#filter13)" />
    <rect
       style="mix-blend-mode:overlay;fill:#ff0000;fill-opacity:1;stroke:none;stroke-width:0;stroke-linecap:round;stroke-linejoin:round;stroke-dasharray:none"
       id="rect2"
       width="132.29167"
       height="132.29167"
       x="0"
       y="0" />
  </g>
</svg>
